<svg width="160" height="40" viewBox="0 0 160 40" fill="none" xmlns="http://www.w3.org/2000/svg">
<path d="M56.3199 21.746C56.3199 20.29 56.6059 18.9987 57.1779 17.872C57.7672 16.7453 58.5559 15.8787 59.5439 15.272C60.5492 14.6653 61.6672 14.362 62.8979 14.362C63.9726 14.362 64.9086 14.5787 65.7059 15.012C66.5206 15.4453 67.1706 15.9913 67.6559 16.65V14.596H71.3219V29H67.6559V26.894C67.1879 27.57 66.5379 28.1333 65.7059 28.584C64.8912 29.0173 63.9466 29.234 62.8719 29.234C61.6586 29.234 60.5492 28.922 59.5439 28.298C58.5559 27.674 57.7672 26.7987 57.1779 25.672C56.6059 24.528 56.3199 23.2193 56.3199 21.746ZM67.6559 21.798C67.6559 20.914 67.4826 20.16 67.1359 19.536C66.7892 18.8947 66.3212 18.4093 65.7319 18.08C65.1426 17.7333 64.5099 17.56 63.8339 17.56C63.1579 17.56 62.5339 17.7247 61.9619 18.054C61.3899 18.3833 60.9219 18.8687 60.5579 19.51C60.2112 20.134 60.0379 20.8793 60.0379 21.746C60.0379 22.6127 60.2112 23.3753 60.5579 24.034C60.9219 24.6753 61.3899 25.1693 61.9619 25.516C62.5512 25.8627 63.1752 26.036 63.8339 26.036C64.5099 26.036 65.1426 25.8713 65.7319 25.542C66.3212 25.1953 66.7892 24.71 67.1359 24.086C67.4826 23.4447 67.6559 22.682 67.6559 21.798ZM73.941 21.798C73.941 20.3073 74.2443 19.0073 74.851 17.898C75.4577 16.7713 76.2983 15.9047 77.373 15.298C78.4477 14.674 79.6783 14.362 81.065 14.362C82.8503 14.362 84.3237 14.8127 85.485 15.714C86.6637 16.598 87.4523 17.846 87.851 19.458H83.925C83.717 18.834 83.3617 18.3487 82.859 18.002C82.3737 17.638 81.767 17.456 81.039 17.456C79.999 17.456 79.1757 17.8373 78.569 18.6C77.9623 19.3453 77.659 20.4113 77.659 21.798C77.659 23.1673 77.9623 24.2333 78.569 24.996C79.1757 25.7413 79.999 26.114 81.039 26.114C82.5123 26.114 83.4743 25.4553 83.925 24.138H87.851C87.4523 25.698 86.6637 26.9373 85.485 27.856C84.3063 28.7747 82.833 29.234 81.065 29.234C79.6783 29.234 78.4477 28.9307 77.373 28.324C76.2983 27.7 75.4577 26.8333 74.851 25.724C74.2443 24.5973 73.941 23.2887 73.941 21.798ZM95.7769 21.798C95.7769 20.3073 96.0803 19.0073 96.6869 17.898C97.2936 16.7713 98.1343 15.9047 99.2089 15.298C100.284 14.674 101.514 14.362 102.901 14.362C104.686 14.362 106.16 14.8127 107.321 15.714C108.5 16.598 109.288 17.846 109.687 19.458H105.761C105.553 18.834 105.198 18.3487 104.695 18.002C104.21 17.638 103.603 17.456 102.875 17.456C101.835 17.456 101.012 17.8373 100.405 18.6C99.7983 19.3453 99.4949 20.4113 99.4949 21.798C99.4949 23.1673 99.7983 24.2333 100.405 24.996C101.012 25.7413 101.835 26.114 102.875 26.114C104.348 26.114 105.31 25.4553 105.761 24.138H109.687C109.288 25.698 108.5 26.9373 107.321 27.856C106.142 28.7747 104.669 29.234 102.901 29.234C101.514 29.234 100.284 28.9307 99.2089 28.324C98.1343 27.7 97.2936 26.8333 96.6869 25.724C96.0803 24.5973 95.7769 23.2887 95.7769 21.798ZM111.418 21.746C111.418 20.29 111.704 18.9987 112.276 17.872C112.865 16.7453 113.654 15.8787 114.642 15.272C115.647 14.6653 116.765 14.362 117.996 14.362C119.07 14.362 120.006 14.5787 120.804 15.012C121.618 15.4453 122.268 15.9913 122.754 16.65V14.596H126.42V29H122.754V26.894C122.286 27.57 121.636 28.1333 120.804 28.584C119.989 29.0173 119.044 29.234 117.97 29.234C116.756 29.234 115.647 28.922 114.642 28.298C113.654 27.674 112.865 26.7987 112.276 25.672C111.704 24.528 111.418 23.2193 111.418 21.746ZM122.754 21.798C122.754 20.914 122.58 20.16 122.234 19.536C121.887 18.8947 121.419 18.4093 120.83 18.08C120.24 17.7333 119.608 17.56 118.932 17.56C118.256 17.56 117.632 17.7247 117.06 18.054C116.488 18.3833 116.02 18.8687 115.656 19.51C115.309 20.134 115.136 20.8793 115.136 21.746C115.136 22.6127 115.309 23.3753 115.656 24.034C116.02 24.6753 116.488 25.1693 117.06 25.516C117.649 25.8627 118.273 26.036 118.932 26.036C119.608 26.036 120.24 25.8713 120.83 25.542C121.419 25.1953 121.887 24.71 122.234 24.086C122.58 23.4447 122.754 22.682 122.754 21.798ZM135.487 29.234C134.308 29.234 133.251 29.026 132.315 28.61C131.379 28.1767 130.633 27.596 130.079 26.868C129.541 26.14 129.247 25.334 129.195 24.45H132.861C132.93 25.0047 133.199 25.464 133.667 25.828C134.152 26.192 134.75 26.374 135.461 26.374C136.154 26.374 136.691 26.2353 137.073 25.958C137.471 25.6807 137.671 25.3253 137.671 24.892C137.671 24.424 137.428 24.0773 136.943 23.852C136.475 23.6093 135.721 23.3493 134.681 23.072C133.606 22.812 132.722 22.5433 132.029 22.266C131.353 21.9887 130.763 21.564 130.261 20.992C129.775 20.42 129.533 19.6487 129.533 18.678C129.533 17.8807 129.758 17.1527 130.209 16.494C130.677 15.8353 131.335 15.3153 132.185 14.934C133.051 14.5527 134.065 14.362 135.227 14.362C136.943 14.362 138.312 14.7953 139.335 15.662C140.357 16.5113 140.921 17.664 141.025 19.12H137.541C137.489 18.548 137.246 18.0973 136.813 17.768C136.397 17.4213 135.833 17.248 135.123 17.248C134.464 17.248 133.953 17.3693 133.589 17.612C133.242 17.8547 133.069 18.1927 133.069 18.626C133.069 19.1113 133.311 19.484 133.797 19.744C134.282 19.9867 135.036 20.238 136.059 20.498C137.099 20.758 137.957 21.0267 138.633 21.304C139.309 21.5813 139.889 22.0147 140.375 22.604C140.877 23.176 141.137 23.9387 141.155 24.892C141.155 25.724 140.921 26.4693 140.453 27.128C140.002 27.7867 139.343 28.3067 138.477 28.688C137.627 29.052 136.631 29.234 135.487 29.234ZM152.255 14.388C153.347 14.388 154.317 14.6307 155.167 15.116C156.016 15.584 156.675 16.286 157.143 17.222C157.628 18.1407 157.871 19.25 157.871 20.55V29H154.231V21.044C154.231 19.9 153.945 19.0247 153.373 18.418C152.801 17.794 152.021 17.482 151.033 17.482C150.027 17.482 149.23 17.794 148.641 18.418C148.069 19.0247 147.783 19.9 147.783 21.044V29H144.143V9.76H147.783V16.39C148.251 15.766 148.875 15.2807 149.655 14.934C150.435 14.57 151.301 14.388 152.255 14.388Z" fill="white"/>
<path d="M34.1422 5.85781C30.3647 2.08031 25.3422 0 20 0C14.6578 0 9.63531 2.08031 5.85781 5.85781C2.08031 9.63531 0 14.6578 0 20C0 25.3422 2.08039 30.3646 5.85781 34.1422C9.63523 37.9198 14.6578 40 20 40C25.3422 40 30.3647 37.9197 34.1422 34.1422C37.9197 30.3647 40 25.3422 40 20C40 14.6578 37.9196 9.63539 34.1422 5.85781Z" fill="#33CC95"/>
<g clip-path="url(#clip0_35212_417)">
<path d="M20.5714 8V33.1429" stroke="white" stroke-width="2" stroke-linecap="round" stroke-linejoin="round"/>
<path d="M26.2857 12.5714H17.7143C16.6534 12.5714 15.636 12.9929 14.8859 13.743C14.1357 14.4931 13.7143 15.5106 13.7143 16.5714C13.7143 17.6323 14.1357 18.6497 14.8859 19.3999C15.636 20.15 16.6534 20.5714 17.7143 20.5714H23.4286C24.4894 20.5714 25.5069 20.9929 26.257 21.743C27.0072 22.4932 27.4286 23.5106 27.4286 24.5714C27.4286 25.6323 27.0072 26.6497 26.257 27.3999C25.5069 28.15 24.4894 28.5714 23.4286 28.5714H13.7143" stroke="white" stroke-width="2" stroke-linecap="round" stroke-linejoin="round"/>
</g>
<defs>
<clipPath id="clip0_35212_417">
<rect width="27.4286" height="27.4286" fill="white" transform="translate(6.85715 6.85714)"/>
</clipPath>
</defs>
</svg>
